<svg
  viewBox="0 0 24 24"
  xmlns="http://www.w3.org/2000/svg"
>
  <!-- Globo (círculo) -->
  <circle
    cx="12" cy="11"
    r="5.5"
    fill="none"
    stroke="#1d4ed8"
    stroke-width="1.4"
  />

  <!-- Meridiano vertical -->
  <path
    d="M12 5.5
       C 10.7 7.2, 10 9, 10 11
       C 10 13, 10.7 14.8, 12 16.5"
    fill="none"
    stroke="#1d4ed8"
    stroke-width="1.1"
    stroke-linecap="round"
  />
  <path
    d="M12 5.5
       C 13.3 7.2, 14 9, 14 11
       C 14 13, 13.3 14.8, 12 16.5"
    fill="none"
    stroke="#1d4ed8"
    stroke-width="1.1"
    stroke-linecap="round"
  />

  <!-- Paralelos -->
  <path
    d="M7.2 11
       H16.8"
    fill="none"
    stroke="#1d4ed8"
    stroke-width="1.1"
    stroke-linecap="round"
  />
  <path
    d="M8 8.5
       C 9.2 9, 10.5 9.2, 12 9.2
       C 13.5 9.2, 14.8 9, 16 8.5"
    fill="none"
    stroke="#1d4ed8"
    stroke-width="1.1"
    stroke-linecap="round"
  />
  <path
    d="M8 13.5
       C 9.2 13, 10.5 12.8, 12 12.8
       C 13.5 12.8, 14.8 13, 16 13.5"
    fill="none"
    stroke="#1d4ed8"
    stroke-width="1.1"
    stroke-linecap="round"
  />

  <!-- Hoja en la parte baja derecha -->
  <path
    d="
      M14.5 15.5
      C 15.5 15.2, 16.5 15.2, 17.3 15.6
      C 18 16, 18.5 16.7, 18.7 17.6
      C 17.8 17.9, 16.9 18.1, 16.1 18
      C 15.3 17.8, 14.7 17.4, 14.3 16.8
      Z
    "
    fill="none"
    stroke="#16a34a"
    stroke-width="1.2"
    stroke-linejoin="round"
  />

  <!-- Nervadura hoja -->
  <path
    d="M16.9 16.1
       C 16.4 16.7, 16 17.1, 15.4 17.4"
    fill="none"
    stroke="#16a34a"
    stroke-width="1"
    stroke-linecap="round"
  />
</svg>
